<?xml version="1.0" encoding="UTF-8"?> <svg xmlns="http://www.w3.org/2000/svg" width="1440" height="524" viewBox="0 0 1440 524" fill="none"><rect width="1440" height="524" fill="url(#paint0_linear)"></rect><path d="M-84 475C-78 469 -8 199 240 199C488 199 505 434 707 434C909 434 1119 71 1523 71" stroke="#3A3D43"></path><path d="M1196.56 387.941L1196.56 523.577M1184.67 364.534L1184.67 523.578L1184.67 364.534ZM1173.6 350.215L1173.6 523.578L1173.6 350.215ZM1162.54 338.76L1162.54 523.577L1162.54 338.76ZM1151.47 311.032L1151.47 523.578L1151.47 311.032ZM1140.41 328.743L1140.41 523.577L1140.41 328.743ZM1129.34 321.199L1129.34 523.578L1129.34 321.199ZM1118.27 349.397L1118.27 523.577L1118.27 349.397ZM1107.21 371.079L1107.21 523.578L1107.21 371.079ZM1096.14 377.215L1096.14 523.577L1096.14 377.215ZM1085.08 366.14L1085.08 523.577L1085.08 366.14ZM1074.01 349.869L1074.01 523.577L1074.01 349.869ZM1062.95 322.453L1062.95 523.578L1062.95 322.453ZM1051.88 294L1051.88 523.577L1051.88 294ZM1040.82 298.836L1040.82 523.577L1040.82 298.836ZM1029.75 330.981L1029.75 523.578L1029.75 330.981ZM1018.69 361.87L1018.69 523.577L1018.69 361.87ZM1007.62 380.239L1007.62 523.577L1007.62 380.239ZM996.557 367.397L996.557 523.577L996.557 367.397ZM985.492 347.761L985.492 523.578L985.492 347.761ZM974.427 358.397L974.427 523.577L974.427 358.397ZM963.362 370.669L963.362 523.577L963.362 370.669ZM952.297 389.079L952.297 523.577L952.297 389.079ZM941.23 353.488L941.23 523.578L941.23 353.488ZM930.165 334.599L930.165 523.578L930.165 334.599ZM919.1 322.134L919.1 523.577L919.1 322.134ZM908.035 306.795L908.035 523.578L908.035 306.795ZM896.97 317.456L896.97 523.577L896.97 317.456ZM885.905 328.971L885.906 523.577L885.905 328.971ZM874.841 337.501L874.841 523.578L874.841 337.501ZM863.774 359.68L863.774 523.577L863.774 359.68ZM852.709 374.605L852.709 523.578L852.709 374.605ZM841.644 390.811L841.644 523.578L841.644 390.811ZM830.579 394.743L830.579 523.577L830.579 394.743ZM819.514 414.09L819.514 523.578L819.514 414.09ZM808.449 422.834L808.449 523.577L808.449 422.834ZM797.384 439.003L797.384 523.577L797.384 439.003ZM786.317 421.439L786.317 523.578L786.317 421.439ZM775.252 395.01L775.252 523.577L775.252 395.01ZM764.187 403.179L764.187 523.577L764.187 403.179ZM753.122 371.098L753.122 523.578L753.122 371.098ZM742.057 346.729L742.057 523.577L742.057 346.729ZM730.992 366.789L730.992 523.577L730.992 366.789ZM719.927 358.412L719.927 523.577L719.927 358.412ZM708.862 374.375L708.862 523.578L708.862 374.375ZM697.795 335.649L697.795 523.577L697.795 335.649ZM686.73 321.546L686.73 523.577L686.73 321.546ZM675.665 313.254L675.665 523.577L675.665 313.254ZM664.6 309.468L664.6 523.578L664.6 309.468ZM653.535 323.186L653.535 523.577L653.535 323.186ZM642.47 337.289L642.47 523.577L642.47 337.289ZM631.405 349.6L631.405 523.577L631.405 349.6ZM620.34 372.386L620.34 523.577L620.34 372.386ZM609.273 401.13L609.273 523.578L609.273 401.13ZM598.208 370.575L598.208 523.578L598.208 370.575ZM587.143 380.771L587.143 523.577L587.143 380.771ZM576.078 380.44L576.078 523.577L576.078 380.44ZM565.013 361.472L565.013 523.578L565.013 361.472ZM553.948 362.128L553.948 523.578L553.948 362.128ZM542.883 345.858L542.883 523.577L542.883 345.858ZM531.817 337.012L531.817 523.578L531.817 337.012ZM520.752 306.624L520.752 523.578L520.752 306.624ZM509.687 316.961L509.687 523.577L509.687 316.961ZM498.622 340.983L498.622 523.577L498.622 340.983ZM487.557 372.042L487.557 523.577L487.557 372.042ZM476.492 380.389L476.492 523.578L476.492 380.389ZM465.427 386.977L465.427 523.578L465.427 386.977ZM454.362 383.519L454.362 523.577L454.362 383.519ZM443.297 354.235L443.297 523.577L443.297 354.235ZM432.23 377.251L432.23 523.577L432.23 377.251ZM421.165 372.817L421.165 523.577L421.165 372.817ZM410.1 377.258L410.1 523.577L410.1 377.258ZM399.035 358.262L399.035 523.577L399.035 358.262ZM387.97 349.631L387.97 523.577L387.97 349.631ZM376.905 374.374L376.905 523.577L376.905 374.374ZM365.84 359.498L365.84 523.577L365.84 359.498ZM354.773 386.977L354.773 523.578L354.773 386.977ZM343.708 370.057L343.708 523.577L343.708 370.057ZM332.643 356.31L332.643 523.578L332.643 356.31ZM321.578 320.953L321.578 523.577L321.578 320.953ZM310.513 313.282L310.513 523.578L310.513 313.282ZM299.448 331.916L299.448 523.577L299.448 331.916ZM288.383 343.969L288.383 523.578L288.383 343.969ZM277.318 356.31L277.318 523.578L277.318 356.31ZM266.251 368.482L266.251 523.577L266.251 368.482ZM255.186 393.015L255.186 523.577L255.186 393.015ZM243.435 372.042L243.435 523.577L243.435 372.042ZM232.37 380.389L232.37 523.578L232.37 380.389ZM221.305 386.977L221.305 523.578L221.305 386.977ZM210.24 383.519L210.24 523.577L210.24 383.519ZM199.175 354.235L199.175 523.577L199.175 354.235ZM188.109 377.251L188.109 523.577L188.109 377.251ZM177.044 372.817L177.044 523.577L177.044 372.817ZM165.979 377.258L165.979 523.577L165.979 377.258ZM154.914 358.262L154.914 523.577L154.914 358.262ZM143.849 349.631L143.849 523.577L143.849 349.631ZM132.784 374.374L132.784 523.577L132.784 374.374ZM121.719 359.498L121.719 523.577L121.719 359.498ZM110.652 386.977L110.652 523.578L110.652 386.977ZM99.5868 370.057L99.5868 523.577L99.5868 370.057ZM88.5219 356.31L88.5219 523.578L88.5219 356.31ZM77.4568 320.953L77.4568 523.577L77.4568 320.953ZM66.3919 313.282L66.3919 523.578L66.3919 313.282ZM55.3268 331.916L55.3268 523.577L55.3268 331.916ZM44.2619 343.969L44.2619 523.578L44.2619 343.969ZM33.1968 356.31L33.1969 523.579L33.1968 356.31ZM22.13 368.482L22.13 523.577L22.13 368.482ZM11.0651 393.015L11.0651 523.577L11.0651 393.015ZM1.93741e-05 437.481L2.69009e-05 523.577L1.93741e-05 437.481ZM1440 372.042L1440 523.577L1440 372.042ZM1428.94 380.389L1428.94 523.578L1428.94 380.389ZM1417.87 386.977L1417.87 523.578L1417.87 386.977ZM1406.81 383.519L1406.81 523.577L1406.81 383.519ZM1395.74 354.234L1395.74 523.577L1395.74 354.234ZM1384.67 377.25L1384.67 523.577L1384.67 377.25ZM1373.61 372.817L1373.61 523.577L1373.61 372.817ZM1362.54 377.257L1362.54 523.577L1362.54 377.257ZM1351.48 358.262L1351.48 523.577L1351.48 358.262ZM1340.41 349.631L1340.41 523.577L1340.41 349.631ZM1329.35 374.373L1329.35 523.577L1329.35 374.373ZM1318.28 359.498L1318.28 523.577L1318.28 359.498ZM1307.22 386.977L1307.22 523.578L1307.22 386.977ZM1296.15 370.057L1296.15 523.577L1296.15 370.057ZM1285.09 356.31L1285.09 523.578L1285.09 356.31ZM1274.02 320.953L1274.02 523.577L1274.02 320.953ZM1262.96 313.282L1262.96 523.578L1262.96 313.282ZM1251.89 331.916L1251.89 523.577L1251.89 331.916ZM1240.83 343.969L1240.83 523.578L1240.83 343.969ZM1229.76 356.31L1229.76 523.578L1229.76 356.31ZM1218.69 368.482L1218.69 523.577L1218.69 368.482ZM1207.63 393.015L1207.63 523.577L1207.63 393.015Z" stroke="#434752" stroke-width="2" stroke-miterlimit="10"></path><defs><linearGradient id="paint0_linear" x1="720" y1="0" x2="720" y2="524" gradientUnits="userSpaceOnUse"><stop stop-color="#202328"></stop><stop offset="1" stop-color="#434752"></stop></linearGradient></defs></svg> 